<svg width="344" height="711" viewBox="0 0 344 711" fill="none" xmlns="http://www.w3.org/2000/svg">
<path fill-rule="evenodd" clip-rule="evenodd" d="M315 3.5C315 1.84315 316.343 0.5 318 0.5H336C337.657 0.5 339 1.84315 339 3.5V10C339 11.6569 337.657 13 336 13H318C316.343 13 315 11.6569 315 10V3.5ZM318 1.5C316.895 1.5 316 2.39543 316 3.5V10C316 11.1046 316.895 12 318 12H336C337.105 12 338 11.1046 338 10V3.5C338 2.39543 337.105 1.5 336 1.5H318ZM340 9.04196C340.883 8.65619 341.5 7.77515 341.5 6.74999C341.5 5.72483 340.883 4.84379 340 4.45801V9.04196ZM20.4287 12H18.4131V2.71094H18.2803L15.4756 4.69531V2.79688L18.4209 0.726562H20.4287V12ZM25.9369 3.46094C25.9369 4.14844 25.4134 4.69531 24.6947 4.69531C23.9837 4.69531 23.4525 4.14844 23.4525 3.46094C23.4525 2.76562 23.9837 2.22656 24.6947 2.22656C25.4134 2.22656 25.9369 2.76562 25.9369 3.46094ZM25.9369 9.25781C25.9369 9.95312 25.4134 10.4922 24.6947 10.4922C23.9837 10.4922 23.4525 9.95312 23.4525 9.25781C23.4525 8.5625 23.9837 8.02344 24.6947 8.02344C25.4134 8.02344 25.9369 8.5625 25.9369 9.25781ZM32.9606 12H30.945V2.71094H30.8122L28.0075 4.69531V2.79688L30.9528 0.726562H32.9606V12ZM40.5469 12H38.5312V2.71094H38.3984L35.5938 4.69531V2.79688L38.5391 0.726562H40.5469V12ZM72.0622 65.9091V87H84.8012V84.2607H75.2444V65.9091H72.0622ZM90.9648 86.2997C92.0701 86.9794 93.3643 87.3192 94.8472 87.3192C96.3302 87.3192 97.6243 86.9794 98.7297 86.2997C99.835 85.62 100.693 84.6692 101.304 83.4471C101.915 82.225 102.221 80.797 102.221 79.163C102.221 77.5221 101.915 76.0872 101.304 74.8583C100.693 73.6294 99.835 72.6751 98.7297 71.9954C97.6243 71.3157 96.3302 70.9759 94.8472 70.9759C93.3643 70.9759 92.0701 71.3157 90.9648 71.9954C89.8594 72.6751 89.0012 73.6294 88.3902 74.8583C87.7792 76.0872 87.4736 77.5221 87.4736 79.163C87.4736 80.797 87.7792 82.225 88.3902 83.4471C89.0012 84.6692 89.8594 85.62 90.9648 86.2997ZM97.2467 83.9723C96.6151 84.4803 95.8187 84.7344 94.8575 84.7344C93.8895 84.7344 93.0862 84.4803 92.4477 83.9723C91.8161 83.4642 91.3458 82.788 91.0368 81.9435C90.7348 81.0991 90.5837 80.1688 90.5837 79.1527C90.5837 78.1435 90.7348 77.2166 91.0368 76.3722C91.3458 75.5208 91.8161 74.8377 92.4477 74.3228C93.0862 73.8079 93.8895 73.5504 94.8575 73.5504C95.8187 73.5504 96.6151 73.8079 97.2467 74.3228C97.8783 74.8377 98.3452 75.5208 98.6473 76.3722C98.9562 77.2166 99.1107 78.1435 99.1107 79.1527C99.1107 80.1688 98.9562 81.0991 98.6473 81.9435C98.3452 82.788 97.8783 83.4642 97.2467 83.9723ZM105.658 71.1818V87H108.737V77.3402C108.737 76.6536 108.902 76.0426 109.231 75.5071C109.561 74.9647 110.007 74.5425 110.57 74.2404C111.14 73.9315 111.789 73.777 112.517 73.777C112.832 73.777 113.148 73.801 113.464 73.8491C113.78 73.8903 113.999 73.928 114.123 73.9624V71.017C113.972 70.9964 113.763 70.9793 113.495 70.9656C113.234 70.9518 113.007 70.945 112.815 70.945C111.888 70.945 111.058 71.1921 110.323 71.6864C109.595 72.1739 109.087 72.8433 108.799 73.6946H108.634V71.1818H105.658ZM119.012 86.3203C120.138 86.9863 121.48 87.3192 123.039 87.3192C124.192 87.3192 125.219 87.1442 126.118 86.794C127.024 86.437 127.776 85.9393 128.373 85.3008C128.977 84.6554 129.396 83.9036 129.63 83.0455L126.715 82.5202C126.53 83.0146 126.262 83.4299 125.912 83.7663C125.562 84.1027 125.147 84.3568 124.666 84.5284C124.185 84.6932 123.653 84.7756 123.07 84.7756C122.17 84.7756 121.384 84.5833 120.711 84.1989C120.039 83.8075 119.513 83.2411 119.136 82.4996C118.791 81.8092 118.606 80.9819 118.582 80.0178H129.825V78.9261C129.825 77.4912 129.633 76.2726 129.249 75.2702C128.864 74.261 128.339 73.4406 127.673 72.809C127.007 72.1773 126.255 71.7139 125.418 71.4187C124.58 71.1235 123.715 70.9759 122.823 70.9759C121.353 70.9759 120.069 71.3226 118.971 72.016C117.879 72.7094 117.028 73.674 116.417 74.9098C115.813 76.1456 115.511 77.5736 115.511 79.1939C115.511 80.8348 115.813 82.2662 116.417 83.4883C117.028 84.7035 117.893 85.6475 119.012 86.3203ZM118.587 77.7109C118.624 77.031 118.793 76.3959 119.095 75.8058C119.445 75.1261 119.939 74.5768 120.578 74.158C121.223 73.7324 121.978 73.5195 122.843 73.5195C123.64 73.5195 124.333 73.7015 124.923 74.0653C125.521 74.4292 125.984 74.927 126.314 75.5586C126.643 76.1834 126.808 76.9008 126.808 77.7109H118.587ZM133.242 71.1818V87H136.321V77.2475C136.321 76.5335 136.469 75.9053 136.764 75.3629C137.066 74.8205 137.461 74.3983 137.948 74.0962C138.442 73.7873 138.981 73.6328 139.565 73.6328C140.423 73.6328 141.12 73.8937 141.656 74.4155C142.191 74.9373 142.459 75.6273 142.459 76.4854V87H145.528V76.918C145.528 75.9568 145.806 75.1707 146.362 74.5597C146.918 73.9418 147.697 73.6328 148.7 73.6328C149.51 73.6328 150.207 73.8731 150.79 74.3537C151.374 74.8343 151.665 75.6101 151.665 76.6811V87H154.745V76.3928C154.745 74.5803 154.288 73.2243 153.375 72.3249C152.469 71.4255 151.298 70.9759 149.863 70.9759C148.724 70.9759 147.742 71.2299 146.918 71.7379C146.094 72.2391 145.493 72.9119 145.116 73.7564H144.951C144.608 72.8913 144.076 72.2116 143.355 71.7173C142.641 71.223 141.755 70.9759 140.698 70.9759C139.654 70.9759 138.758 71.223 138.01 71.7173C137.262 72.2048 136.723 72.8845 136.393 73.7564H136.197V71.1818H133.242ZM169.976 87V65.9091H166.794V87H169.976ZM174.363 71.1818V92.9318H177.442V84.5387H177.627C177.813 84.8751 178.077 85.2596 178.42 85.6921C178.764 86.1246 179.237 86.5023 179.842 86.8249C180.453 87.1476 181.239 87.309 182.2 87.309C183.477 87.309 184.613 86.9828 185.609 86.3306C186.604 85.6715 187.387 84.7344 187.957 83.5192C188.527 82.2971 188.811 80.8313 188.811 79.1218C188.811 77.4123 188.523 75.9499 187.946 74.7347C187.377 73.5195 186.59 72.5892 185.588 71.9439C184.586 71.2985 183.446 70.9759 182.169 70.9759C181.187 70.9759 180.398 71.1406 179.8 71.4702C179.203 71.7928 178.736 72.1705 178.4 72.603C178.063 73.0355 177.806 73.4165 177.627 73.7461H177.37V71.1818H174.363ZM177.864 82.0156C177.542 81.178 177.38 80.2031 177.38 79.0909C177.38 77.9924 177.538 77.0312 177.854 76.2074C178.17 75.3835 178.633 74.7416 179.244 74.2816C179.862 73.8216 180.617 73.5916 181.51 73.5916C182.437 73.5916 183.209 73.8319 183.827 74.3125C184.452 74.7931 184.919 75.4487 185.228 76.2795C185.543 77.1102 185.701 78.0473 185.701 79.0909C185.701 80.1482 185.54 81.0991 185.217 81.9435C184.902 82.788 184.435 83.4574 183.817 83.9517C183.199 84.4392 182.43 84.6829 181.51 84.6829C180.624 84.6829 179.876 84.4495 179.265 83.9826C178.654 83.5089 178.187 82.8532 177.864 82.0156ZM201.324 75.538L204.115 75.0437C203.799 73.8079 203.15 72.8227 202.168 72.0881C201.187 71.3466 199.841 70.9759 198.131 70.9759C196.944 70.9759 195.89 71.1749 194.97 71.5732C194.05 71.9645 193.329 72.5103 192.807 73.2106C192.285 73.9109 192.025 74.7279 192.025 75.6616C192.025 76.7875 192.375 77.7178 193.075 78.4524C193.782 79.187 194.874 79.7225 196.35 80.059L199.027 80.646C199.783 80.8176 200.342 81.0716 200.706 81.408C201.077 81.7444 201.262 82.1598 201.262 82.6541C201.262 83.2652 200.96 83.7835 200.356 84.2092C199.752 84.628 198.945 84.8374 197.936 84.8374C197.009 84.8374 196.257 84.6417 195.68 84.2504C195.104 83.8522 194.723 83.2652 194.537 82.4893L191.561 82.9425C191.815 84.343 192.502 85.4244 193.621 86.1864C194.74 86.9416 196.185 87.3192 197.956 87.3192C199.233 87.3192 200.356 87.1098 201.324 86.691C202.299 86.2723 203.057 85.6955 203.6 84.9609C204.149 84.2195 204.424 83.375 204.424 82.4276C204.424 81.3085 204.067 80.3988 203.353 79.6985C202.639 78.9982 201.554 78.4799 200.098 78.1435L197.586 77.5668C196.714 77.3608 196.082 77.0965 195.691 76.7738C195.299 76.4511 195.104 76.0255 195.104 75.4968C195.104 74.8858 195.395 74.388 195.979 74.0035C196.563 73.6122 197.29 73.4165 198.162 73.4165C198.801 73.4165 199.333 73.5195 199.759 73.7255C200.184 73.9315 200.521 74.1958 200.768 74.5185C201.022 74.8411 201.207 75.181 201.324 75.538ZM217.829 71.1818V80.44C217.836 81.3394 217.648 82.0808 217.263 82.6644C216.885 83.248 216.408 83.684 215.832 83.9723C215.262 84.2607 214.688 84.4048 214.112 84.4048C213.157 84.4048 212.382 84.0856 211.784 83.4471C211.187 82.8086 210.888 81.9504 210.888 80.8725V71.1818H207.809V81.2433C207.809 82.5477 208.029 83.6428 208.468 84.5284C208.915 85.4141 209.526 86.0835 210.301 86.5366C211.084 86.9828 211.983 87.206 213 87.206C214.187 87.206 215.179 86.9279 215.976 86.3718C216.779 85.8088 217.363 85.1051 217.726 84.2607H217.891V87H220.919V71.1818H217.829ZM228.012 71.1818H225.056V87H228.135V77.2475C228.135 76.5335 228.283 75.9053 228.578 75.3629C228.88 74.8205 229.275 74.3983 229.763 74.0962C230.257 73.7873 230.796 73.6328 231.379 73.6328C232.238 73.6328 232.934 73.8937 233.47 74.4155C234.006 74.9373 234.273 75.6273 234.273 76.4854V87H237.342V76.918C237.342 75.9568 237.62 75.1707 238.176 74.5597C238.732 73.9418 239.512 73.6328 240.514 73.6328C241.324 73.6328 242.021 73.8731 242.605 74.3537C243.188 74.8343 243.48 75.6101 243.48 76.6811V87H246.559V76.3928C246.559 74.5803 246.103 73.2243 245.189 72.3249C244.283 71.4255 243.113 70.9759 241.678 70.9759C240.538 70.9759 239.556 71.2299 238.732 71.7379C237.909 72.2391 237.308 72.9119 236.93 73.7564H236.765C236.422 72.8913 235.89 72.2116 235.169 71.7173C234.455 71.223 233.57 70.9759 232.512 70.9759C231.469 70.9759 230.573 71.223 229.824 71.7173C229.076 72.2048 228.537 72.8845 228.208 73.7564H228.012V71.1818ZM251.263 86.5984C251.668 86.9966 252.152 87.1957 252.715 87.1957C253.093 87.1957 253.436 87.103 253.745 86.9176C254.054 86.7322 254.301 86.4851 254.486 86.1761C254.678 85.8603 254.775 85.5136 254.775 85.136C254.775 84.573 254.572 84.0924 254.167 83.6942C253.762 83.2892 253.278 83.0866 252.715 83.0866C252.152 83.0866 251.668 83.2892 251.263 83.6942C250.858 84.0924 250.655 84.573 250.655 85.136C250.655 85.7058 250.858 86.1933 251.263 86.5984ZM259.476 86.5984C259.881 86.9966 260.365 87.1957 260.928 87.1957C261.305 87.1957 261.649 87.103 261.958 86.9176C262.267 86.7322 262.514 86.4851 262.699 86.1761C262.891 85.8603 262.987 85.5136 262.987 85.136C262.987 84.573 262.785 84.0924 262.38 83.6942C261.975 83.2892 261.491 83.0866 260.928 83.0866C260.365 83.0866 259.881 83.2892 259.476 83.6942C259.071 84.0924 258.868 84.573 258.868 85.136C258.868 85.7058 259.071 86.1933 259.476 86.5984ZM267.689 86.5984C268.094 86.9966 268.578 87.1957 269.141 87.1957C269.518 87.1957 269.862 87.103 270.171 86.9176C270.479 86.7322 270.727 86.4851 270.912 86.1761C271.104 85.8603 271.2 85.5136 271.2 85.136C271.2 84.573 270.998 84.0924 270.593 83.6942C270.188 83.2892 269.704 83.0866 269.141 83.0866C268.578 83.0866 268.094 83.2892 267.689 83.6942C267.284 84.0924 267.081 84.573 267.081 85.136C267.081 85.7058 267.284 86.1933 267.689 86.5984ZM106.61 700.642C106.954 700.896 107.149 701.252 107.195 701.71H109.553C109.541 701.017 109.356 700.407 108.996 699.881C108.636 699.354 108.132 698.943 107.485 698.648C106.841 698.352 106.087 698.205 105.223 698.205C104.375 698.205 103.617 698.352 102.95 698.648C102.284 698.943 101.759 699.354 101.377 699.881C100.998 700.407 100.81 701.023 100.814 701.727C100.81 702.587 101.093 703.271 101.661 703.778C102.229 704.286 103.004 704.659 103.985 704.898L105.252 705.216C105.676 705.318 106.034 705.432 106.325 705.557C106.621 705.682 106.844 705.833 106.996 706.011C107.151 706.189 107.229 706.409 107.229 706.67C107.229 706.951 107.144 707.199 106.973 707.415C106.803 707.631 106.562 707.799 106.252 707.92C105.945 708.042 105.583 708.102 105.166 708.102C104.742 708.102 104.361 708.038 104.024 707.909C103.691 707.776 103.424 707.581 103.223 707.324C103.026 707.062 102.915 706.737 102.888 706.347H100.507C100.526 707.184 100.729 707.886 101.115 708.455C101.505 709.019 102.047 709.445 102.74 709.733C103.437 710.021 104.255 710.165 105.195 710.165C106.142 710.165 106.95 710.023 107.621 709.739C108.295 709.451 108.81 709.047 109.166 708.528C109.526 708.006 109.708 707.388 109.712 706.676C109.708 706.191 109.619 705.761 109.445 705.386C109.274 705.011 109.034 704.686 108.723 704.409C108.413 704.133 108.045 703.9 107.621 703.71C107.197 703.521 106.731 703.369 106.223 703.256L105.178 703.006C104.924 702.949 104.685 702.881 104.462 702.801C104.238 702.718 104.041 702.621 103.871 702.511C103.7 702.398 103.566 702.263 103.468 702.108C103.373 701.953 103.329 701.771 103.337 701.562C103.337 701.312 103.409 701.089 103.553 700.892C103.7 700.695 103.913 700.542 104.189 700.432C104.466 700.318 104.805 700.261 105.206 700.261C105.797 700.261 106.265 700.388 106.61 700.642ZM113.46 709.625C114.108 709.989 114.881 710.17 115.778 710.17C116.498 710.17 117.133 710.061 117.682 709.841C118.235 709.617 118.686 709.307 119.034 708.909C119.386 708.508 119.619 708.038 119.733 707.5L117.494 707.352C117.411 707.572 117.29 707.758 117.131 707.909C116.972 708.061 116.78 708.174 116.557 708.25C116.333 708.326 116.087 708.364 115.818 708.364C115.413 708.364 115.063 708.278 114.767 708.108C114.472 707.938 114.243 707.695 114.08 707.381C113.921 707.066 113.841 706.693 113.841 706.261V706.256H119.784V705.591C119.784 704.849 119.68 704.201 119.472 703.648C119.263 703.091 118.972 702.629 118.597 702.261C118.225 701.894 117.79 701.619 117.29 701.438C116.794 701.252 116.258 701.159 115.682 701.159C114.826 701.159 114.08 701.349 113.443 701.727C112.811 702.106 112.32 702.634 111.972 703.312C111.623 703.991 111.449 704.778 111.449 705.676C111.449 706.597 111.623 707.394 111.972 708.068C112.32 708.739 112.816 709.258 113.46 709.625ZM113.843 704.756C113.858 704.442 113.939 704.156 114.085 703.898C114.244 703.614 114.464 703.388 114.744 703.222C115.028 703.051 115.354 702.966 115.722 702.966C116.074 702.966 116.383 703.044 116.648 703.199C116.917 703.35 117.127 703.561 117.278 703.83C117.43 704.099 117.506 704.407 117.506 704.756H113.843ZM124.264 710V704.955C124.268 704.58 124.338 704.259 124.474 703.994C124.615 703.725 124.808 703.521 125.054 703.381C125.304 703.241 125.592 703.17 125.918 703.17C126.402 703.17 126.783 703.322 127.06 703.625C127.336 703.924 127.473 704.341 127.469 704.875V710H129.889V704.443C129.889 703.765 129.764 703.182 129.514 702.693C129.264 702.201 128.914 701.822 128.463 701.557C128.012 701.292 127.484 701.159 126.878 701.159C126.23 701.159 125.679 701.309 125.224 701.608C124.77 701.903 124.446 702.305 124.253 702.812H124.151V701.273H121.844V710H124.264ZM133.692 709.631C134.23 709.972 134.83 710.142 135.493 710.142C135.962 710.142 136.36 710.064 136.686 709.909C137.015 709.754 137.283 709.559 137.487 709.324C137.695 709.085 137.856 708.845 137.97 708.602H138.072V710H140.459V698.364H138.044V702.739H137.97C137.864 702.504 137.709 702.265 137.504 702.023C137.303 701.776 137.038 701.572 136.709 701.409C136.383 701.242 135.976 701.159 135.487 701.159C134.847 701.159 134.258 701.326 133.72 701.659C133.186 701.989 132.758 702.487 132.436 703.153C132.114 703.816 131.953 704.648 131.953 705.648C131.953 706.621 132.108 707.443 132.419 708.114C132.733 708.78 133.158 709.286 133.692 709.631ZM137.248 707.898C136.98 708.11 136.65 708.216 136.26 708.216C135.862 708.216 135.527 708.108 135.254 707.892C134.985 707.672 134.779 707.369 134.635 706.983C134.495 706.593 134.425 706.144 134.425 705.636C134.425 705.133 134.495 704.689 134.635 704.307C134.775 703.924 134.981 703.625 135.254 703.409C135.527 703.193 135.862 703.085 136.26 703.085C136.65 703.085 136.981 703.189 137.254 703.398C137.527 703.606 137.735 703.901 137.879 704.284C138.023 704.667 138.095 705.117 138.095 705.636C138.095 706.155 138.021 706.608 137.873 706.994C137.73 707.381 137.521 707.682 137.248 707.898ZM156.89 710V698.364H154.441V705.682H154.339L149.316 698.364H147.157V710H149.618V702.676H149.703L154.765 710H156.89ZM161.011 709.608C161.655 709.983 162.418 710.17 163.301 710.17C164.183 710.17 164.945 709.983 165.585 709.608C166.229 709.229 166.725 708.703 167.073 708.028C167.422 707.35 167.596 706.564 167.596 705.67C167.596 704.769 167.422 703.981 167.073 703.307C166.725 702.629 166.229 702.102 165.585 701.727C164.945 701.349 164.183 701.159 163.301 701.159C162.418 701.159 161.655 701.349 161.011 701.727C160.371 702.102 159.876 702.629 159.528 703.307C159.179 703.981 159.005 704.769 159.005 705.67C159.005 706.564 159.179 707.35 159.528 708.028C159.876 708.703 160.371 709.229 161.011 709.608ZM164.318 707.955C164.049 708.182 163.714 708.295 163.312 708.295C162.907 708.295 162.566 708.182 162.289 707.955C162.017 707.724 161.81 707.409 161.67 707.011C161.534 706.614 161.465 706.161 161.465 705.653C161.465 705.146 161.534 704.693 161.67 704.295C161.81 703.898 162.017 703.583 162.289 703.352C162.566 703.121 162.907 703.006 163.312 703.006C163.714 703.006 164.049 703.121 164.318 703.352C164.587 703.583 164.789 703.898 164.926 704.295C165.066 704.693 165.136 705.146 165.136 705.653C165.136 706.161 165.066 706.614 164.926 707.011C164.789 707.409 164.587 707.724 164.318 707.955ZM174.292 703.091V701.273H172.65V699.182H170.23V701.273H169.036V703.091H170.23V707.636C170.226 708.208 170.345 708.682 170.587 709.057C170.83 709.432 171.169 709.708 171.605 709.886C172.044 710.064 172.555 710.142 173.139 710.119C173.453 710.108 173.72 710.076 173.94 710.023C174.159 709.974 174.33 709.93 174.451 709.892L174.07 708.091C174.043 708.096 174.011 708.102 173.973 708.11C173.926 708.119 173.872 708.13 173.809 708.142C173.695 708.161 173.582 708.17 173.468 708.17C173.305 708.17 173.161 708.146 173.036 708.097C172.915 708.047 172.82 707.962 172.752 707.841C172.684 707.716 172.65 707.542 172.65 707.318V703.091H174.292ZM178.769 701.273H176.349V710H178.769V701.273ZM176.638 699.79C176.896 700.028 177.205 700.148 177.565 700.148C177.924 700.148 178.231 700.028 178.485 699.79C178.743 699.547 178.871 699.258 178.871 698.92C178.871 698.587 178.743 698.301 178.485 698.062C178.231 697.82 177.924 697.699 177.565 697.699C177.205 697.699 176.896 697.82 176.638 698.062C176.385 698.301 176.258 698.587 176.258 698.92C176.258 699.258 176.385 699.547 176.638 699.79ZM185.881 703.091V701.273H184.143V700.688C184.143 700.392 184.213 700.163 184.353 700C184.493 699.833 184.741 699.75 185.097 699.75C185.241 699.75 185.381 699.763 185.518 699.79C185.658 699.816 185.775 699.845 185.87 699.875L186.302 698.057C186.15 698.011 185.919 697.96 185.609 697.903C185.302 697.847 184.963 697.818 184.592 697.818C184.042 697.818 183.552 697.922 183.12 698.131C182.688 698.339 182.347 698.651 182.097 699.068C181.851 699.485 181.728 700.009 181.728 700.642V701.273H180.495V703.091H181.728V710H184.143V703.091H185.881ZM190.26 701.273H187.84V710H190.26V701.273ZM188.13 699.79C188.387 700.028 188.696 700.148 189.056 700.148C189.416 700.148 189.723 700.028 189.976 699.79C190.234 699.547 190.363 699.258 190.363 698.92C190.363 698.587 190.234 698.301 189.976 698.062C189.723 697.82 189.416 697.699 189.056 697.699C188.696 697.699 188.387 697.82 188.13 698.062C187.876 698.301 187.749 698.587 187.749 698.92C187.749 699.258 187.876 699.547 188.13 699.79ZM194.316 709.602C194.96 709.981 195.729 710.17 196.623 710.17C197.399 710.17 198.071 710.028 198.64 709.744C199.208 709.46 199.653 709.066 199.975 708.562C200.301 708.055 200.482 707.468 200.52 706.801H198.236C198.191 707.108 198.094 707.371 197.946 707.591C197.802 707.807 197.619 707.972 197.395 708.085C197.176 708.199 196.927 708.256 196.651 708.256C196.276 708.256 195.948 708.153 195.668 707.949C195.388 707.744 195.17 707.447 195.015 707.057C194.863 706.667 194.787 706.193 194.787 705.636C194.787 705.087 194.865 704.619 195.02 704.233C195.176 703.847 195.391 703.553 195.668 703.352C195.948 703.148 196.276 703.045 196.651 703.045C197.094 703.045 197.452 703.18 197.725 703.449C198.001 703.714 198.172 704.064 198.236 704.5H200.52C200.486 703.826 200.302 703.239 199.969 702.739C199.636 702.239 199.183 701.85 198.611 701.574C198.039 701.297 197.373 701.159 196.611 701.159C195.729 701.159 194.967 701.35 194.327 701.733C193.687 702.112 193.193 702.64 192.844 703.318C192.499 703.992 192.327 704.776 192.327 705.67C192.327 706.553 192.498 707.333 192.838 708.011C193.183 708.689 193.676 709.22 194.316 709.602ZM203.55 709.875C203.986 710.068 204.482 710.165 205.039 710.165C205.47 710.165 205.851 710.108 206.181 709.994C206.51 709.877 206.792 709.716 207.027 709.511C207.262 709.303 207.45 709.062 207.59 708.79H207.658V710H209.953V704.114C209.953 703.595 209.853 703.15 209.652 702.778C209.451 702.403 209.177 702.097 208.828 701.858C208.484 701.619 208.088 701.443 207.641 701.33C207.198 701.216 206.734 701.159 206.249 701.159C205.552 701.159 204.938 701.265 204.408 701.477C203.881 701.686 203.451 701.985 203.118 702.375C202.785 702.761 202.561 703.22 202.448 703.75L204.686 703.932C204.77 703.644 204.94 703.405 205.198 703.216C205.455 703.023 205.802 702.926 206.237 702.926C206.65 702.926 206.969 703.025 207.192 703.222C207.419 703.419 207.533 703.697 207.533 704.057V704.091C207.533 704.276 207.463 704.417 207.323 704.511C207.183 704.606 206.957 704.678 206.647 704.727C206.336 704.773 205.927 704.822 205.419 704.875C204.987 704.917 204.575 704.989 204.181 705.091C203.791 705.193 203.442 705.345 203.135 705.545C202.828 705.746 202.586 706.011 202.408 706.341C202.23 706.67 202.141 707.078 202.141 707.562C202.141 708.138 202.266 708.619 202.516 709.006C202.77 709.388 203.114 709.678 203.55 709.875ZM206.675 708.284C206.402 708.424 206.088 708.494 205.732 708.494C205.361 708.494 205.054 708.409 204.811 708.239C204.573 708.064 204.453 707.812 204.453 707.483C204.453 707.256 204.512 707.066 204.63 706.915C204.747 706.759 204.912 706.636 205.124 706.545C205.336 706.455 205.584 706.388 205.868 706.347C206.001 706.328 206.148 706.307 206.311 706.284C206.474 706.258 206.637 706.229 206.8 706.199C206.878 706.183 206.952 706.166 207.022 706.149C207.067 706.138 207.111 706.126 207.154 706.115C207.183 706.107 207.21 706.099 207.237 706.091C207.319 706.065 207.39 706.038 207.45 706.01C207.488 705.992 207.521 705.973 207.55 705.955V706.881C207.55 707.188 207.472 707.462 207.317 707.705C207.162 707.947 206.948 708.14 206.675 708.284ZM216.953 703.091V701.273H215.311V699.182H212.891V701.273H211.698V703.091H212.891V707.636C212.887 708.208 213.006 708.682 213.249 709.057C213.491 709.432 213.83 709.708 214.266 709.886C214.705 710.064 215.217 710.142 215.8 710.119C216.114 710.108 216.381 710.076 216.601 710.023C216.821 709.974 216.991 709.93 217.112 709.892L216.732 708.091L216.676 708.101L216.59 708.118L216.47 708.142C216.357 708.161 216.243 708.17 216.129 708.17C215.967 708.17 215.823 708.146 215.698 708.097C215.576 708.047 215.482 707.962 215.413 707.841C215.345 707.716 215.311 707.542 215.311 707.318V703.091H216.953ZM221.43 701.273H219.01V710H221.43V701.273ZM219.3 699.79C219.557 700.028 219.866 700.148 220.226 700.148C220.586 700.148 220.893 700.028 221.146 699.79C221.404 699.547 221.533 699.258 221.533 698.92C221.533 698.587 221.404 698.301 221.146 698.062C220.893 697.82 220.586 697.699 220.226 697.699C219.866 697.699 219.557 697.82 219.3 698.062C219.046 698.301 218.919 698.587 218.919 698.92C218.919 699.258 219.046 699.547 219.3 699.79ZM225.503 709.608C226.147 709.983 226.91 710.17 227.793 710.17C228.675 710.17 229.436 709.983 230.077 709.608C230.721 709.229 231.217 708.703 231.565 708.028C231.914 707.35 232.088 706.564 232.088 705.67C232.088 704.769 231.914 703.981 231.565 703.307C231.217 702.629 230.721 702.102 230.077 701.727C229.436 701.349 228.675 701.159 227.793 701.159C226.91 701.159 226.147 701.349 225.503 701.727C224.863 702.102 224.368 702.629 224.02 703.307C223.671 703.981 223.497 704.769 223.497 705.67C223.497 706.564 223.671 707.35 224.02 708.028C224.368 708.703 224.863 709.229 225.503 709.608ZM228.81 707.955C228.541 708.182 228.205 708.295 227.804 708.295C227.399 708.295 227.058 708.182 226.781 707.955C226.508 707.724 226.302 707.409 226.162 707.011C226.025 706.614 225.957 706.161 225.957 705.653C225.957 705.146 226.025 704.693 226.162 704.295C226.302 703.898 226.508 703.583 226.781 703.352C227.058 703.121 227.399 703.006 227.804 703.006C228.205 703.006 228.541 703.121 228.81 703.352C229.079 703.583 229.281 703.898 229.418 704.295C229.558 704.693 229.628 705.146 229.628 705.653C229.628 706.161 229.558 706.614 229.418 707.011C229.281 707.409 229.079 707.724 228.81 707.955ZM236.562 710V704.955C236.566 704.58 236.636 704.259 236.773 703.994C236.913 703.725 237.106 703.521 237.352 703.381C237.602 703.241 237.89 703.17 238.216 703.17C238.701 703.17 239.081 703.322 239.358 703.625C239.634 703.924 239.771 704.341 239.767 704.875V710H242.187V704.443C242.187 703.765 242.062 703.182 241.812 702.693C241.562 702.201 241.212 701.822 240.761 701.557C240.31 701.292 239.782 701.159 239.176 701.159C238.528 701.159 237.977 701.309 237.523 701.608C237.068 701.903 236.744 702.305 236.551 702.812H236.449V701.273H234.142V710H236.562ZM48.625 126V112.182H50.2983V124.516H56.7215V126H48.625ZM63.3068 126.216C62.3712 126.216 61.5503 125.993 60.8441 125.548C60.1424 125.103 59.5936 124.48 59.1978 123.679C58.8064 122.878 58.6108 121.943 58.6108 120.872C58.6108 119.793 58.8064 118.85 59.1978 118.045C59.5936 117.24 60.1424 116.615 60.8441 116.169C61.5503 115.724 62.3712 115.501 63.3068 115.501C64.2424 115.501 65.061 115.724 65.7627 116.169C66.4689 116.615 67.0177 117.24 67.409 118.045C67.8049 118.85 68.0028 119.793 68.0028 120.872C68.0028 121.943 67.8049 122.878 67.409 123.679C67.0177 124.48 66.4689 125.103 65.7627 125.548C65.061 125.993 64.2424 126.216 63.3068 126.216ZM63.3068 124.786C64.0175 124.786 64.6022 124.603 65.061 124.239C65.5198 123.875 65.8595 123.396 66.0799 122.802C66.3003 122.208 66.4105 121.565 66.4105 120.872C66.4105 120.179 66.3003 119.534 66.0799 118.936C65.8595 118.337 65.5198 117.854 65.061 117.485C64.6022 117.116 64.0175 116.932 63.3068 116.932C62.5961 116.932 62.0113 117.116 61.5525 117.485C61.0937 117.854 60.7541 118.337 60.5337 118.936C60.3133 119.534 60.2031 120.179 60.2031 120.872C60.2031 121.565 60.3133 122.208 60.5337 122.802C60.7541 123.396 61.0937 123.875 61.5525 124.239C62.0113 124.603 62.5961 124.786 63.3068 124.786ZM70.4335 126V115.636H71.9718V117.202H72.0798C72.2687 116.689 72.6105 116.273 73.1053 115.953C73.6001 115.634 74.1579 115.474 74.7786 115.474C74.8956 115.474 75.0418 115.477 75.2172 115.481C75.3926 115.486 75.5253 115.492 75.6153 115.501V117.121C75.5613 117.107 75.4376 117.087 75.2442 117.06C75.0553 117.029 74.8551 117.013 74.6437 117.013C74.1399 117.013 73.6901 117.118 73.2943 117.33C72.9029 117.537 72.5926 117.825 72.3632 118.194C72.1382 118.558 72.0258 118.974 72.0258 119.442V126H70.4335ZM81.5325 126.216C80.534 126.216 79.6726 125.995 78.9484 125.555C78.2287 125.109 77.6732 124.489 77.2818 123.692C76.895 122.892 76.7016 121.961 76.7016 120.899C76.7016 119.838 76.895 118.902 77.2818 118.092C77.6732 117.278 78.2174 116.644 78.9146 116.19C79.6163 115.731 80.435 115.501 81.3706 115.501C81.9104 115.501 82.4434 115.591 82.9697 115.771C83.496 115.951 83.975 116.244 84.4068 116.648C84.8386 117.049 85.1828 117.58 85.4391 118.241C85.6955 118.902 85.8237 119.716 85.8237 120.683V121.358H78.2974C78.3203 122.047 78.454 122.639 78.6987 123.132C78.9731 123.672 79.3532 124.084 79.839 124.367C80.3248 124.646 80.8893 124.786 81.5325 124.786C81.9509 124.786 82.3287 124.727 82.6661 124.61C83.0079 124.489 83.3025 124.309 83.5499 124.07C83.7973 123.827 83.9885 123.526 84.1234 123.166L85.6618 123.598C85.4999 124.12 85.2277 124.579 84.8454 124.974C84.4631 125.366 83.9908 125.672 83.4285 125.892C82.8662 126.108 82.2342 126.216 81.5325 126.216ZM78.665 118.619C78.453 119.046 78.3318 119.501 78.3015 119.982H84.2044C84.2044 119.397 84.0875 118.875 83.8536 118.416C83.6242 117.957 83.2958 117.595 82.8685 117.33C82.4457 117.065 81.9464 116.932 81.3706 116.932C80.7364 116.932 80.1876 117.089 79.7243 117.404C79.2655 117.714 78.9124 118.119 78.665 118.619ZM88.246 126V115.636H89.7843V117.256H89.9193C90.1352 116.702 90.4838 116.273 90.9651 115.967C91.4464 115.657 92.0244 115.501 92.6991 115.501C93.3828 115.501 93.9518 115.657 94.4061 115.967C94.8649 116.273 95.2225 116.702 95.4789 117.256H95.5869C95.8523 116.72 96.2503 116.295 96.7811 115.98C97.3119 115.661 97.9484 115.501 98.6906 115.501C99.6172 115.501 100.375 115.792 100.964 116.372C101.554 116.948 101.848 117.845 101.848 119.064V126H100.256V119.064C100.256 118.299 100.047 117.753 99.6284 117.424C99.2101 117.096 98.7176 116.932 98.1508 116.932C97.4221 116.932 96.8576 117.152 96.4573 117.593C96.0569 118.029 95.8568 118.583 95.8568 119.253V126H94.2374V118.902C94.2374 118.313 94.0463 117.838 93.6639 117.478C93.2816 117.114 92.789 116.932 92.1863 116.932C91.7725 116.932 91.3856 117.042 91.0258 117.262C90.6704 117.483 90.3826 117.789 90.1622 118.18C89.9462 118.567 89.8383 119.014 89.8383 119.523V126H88.246ZM110.103 126V115.636H111.696V126H110.103ZM110.913 113.909C110.603 113.909 110.335 113.803 110.11 113.592C109.89 113.381 109.78 113.126 109.78 112.83C109.78 112.533 109.89 112.279 110.11 112.067C110.335 111.856 110.603 111.75 110.913 111.75C111.223 111.75 111.489 111.856 111.709 112.067C111.934 112.279 112.047 112.533 112.047 112.83C112.047 113.126 111.934 113.381 111.709 113.592C111.489 113.803 111.223 113.909 110.913 113.909ZM114.612 129.886V115.636H116.151V117.283H116.339C116.456 117.103 116.618 116.873 116.825 116.594C117.037 116.311 117.338 116.059 117.729 115.839C118.125 115.614 118.66 115.501 119.335 115.501C120.208 115.501 120.977 115.72 121.643 116.156C122.308 116.592 122.828 117.211 123.201 118.011C123.575 118.812 123.761 119.757 123.761 120.845C123.761 121.943 123.575 122.894 123.201 123.699C122.828 124.5 122.311 125.121 121.649 125.561C120.988 125.998 120.226 126.216 119.362 126.216C118.696 126.216 118.163 126.106 117.763 125.885C117.363 125.66 117.055 125.406 116.839 125.123C116.623 124.835 116.456 124.597 116.339 124.408H116.204V129.886H114.612ZM116.178 120.818C116.178 121.601 116.292 122.291 116.522 122.89C116.751 123.483 117.086 123.949 117.527 124.286C117.968 124.619 118.508 124.786 119.146 124.786C119.812 124.786 120.368 124.61 120.813 124.259C121.263 123.904 121.6 123.427 121.825 122.829C122.054 122.226 122.169 121.556 122.169 120.818C122.169 120.089 122.057 119.433 121.832 118.848C121.611 118.259 121.276 117.793 120.826 117.451C120.381 117.105 119.821 116.932 119.146 116.932C118.499 116.932 117.954 117.096 117.513 117.424C117.073 117.748 116.74 118.203 116.515 118.787C116.29 119.368 116.178 120.045 116.178 120.818ZM133.531 117.957L132.101 118.362C132.011 118.124 131.878 117.892 131.703 117.667C131.532 117.438 131.298 117.249 131.001 117.1C130.704 116.952 130.324 116.878 129.861 116.878C129.227 116.878 128.698 117.024 128.275 117.316C127.857 117.604 127.648 117.971 127.648 118.416C127.648 118.812 127.792 119.125 128.079 119.354C128.367 119.583 128.817 119.775 129.429 119.928L130.967 120.305C131.894 120.53 132.584 120.874 133.039 121.338C133.493 121.797 133.72 122.388 133.72 123.112C133.72 123.706 133.549 124.237 133.207 124.705C132.87 125.172 132.398 125.541 131.79 125.811C131.183 126.081 130.477 126.216 129.672 126.216C128.615 126.216 127.74 125.987 127.047 125.528C126.354 125.069 125.916 124.399 125.731 123.517L127.243 123.139C127.387 123.697 127.659 124.115 128.059 124.394C128.464 124.673 128.993 124.812 129.645 124.812C130.387 124.812 130.976 124.655 131.413 124.34C131.853 124.021 132.074 123.638 132.074 123.193C132.074 122.833 131.948 122.532 131.696 122.289C131.444 122.042 131.057 121.857 130.535 121.736L128.808 121.331C127.859 121.106 127.162 120.757 126.717 120.285C126.276 119.808 126.055 119.212 126.055 118.497C126.055 117.912 126.22 117.395 126.548 116.945C126.881 116.495 127.333 116.142 127.904 115.886C128.48 115.63 129.132 115.501 129.861 115.501C130.886 115.501 131.691 115.726 132.276 116.176C132.865 116.626 133.284 117.22 133.531 117.957ZM142.648 121.763V115.636H144.241V126H142.648V124.246H142.54C142.297 124.772 141.92 125.22 141.407 125.588C140.894 125.953 140.246 126.135 139.464 126.135C138.816 126.135 138.24 125.993 137.736 125.71C137.233 125.422 136.837 124.99 136.549 124.414C136.261 123.834 136.117 123.103 136.117 122.222V115.636H137.709V122.114C137.709 122.869 137.921 123.472 138.344 123.922C138.771 124.372 139.315 124.597 139.976 124.597C140.372 124.597 140.775 124.495 141.184 124.293C141.598 124.091 141.944 123.78 142.223 123.362C142.507 122.944 142.648 122.411 142.648 121.763ZM147.157 126V115.636H148.695V117.256H148.83C149.046 116.702 149.395 116.273 149.876 115.967C150.357 115.657 150.936 115.501 151.61 115.501C152.294 115.501 152.863 115.657 153.317 115.967C153.776 116.273 154.134 116.702 154.39 117.256H154.498C154.763 116.72 155.161 116.295 155.692 115.98C156.223 115.661 156.86 115.501 157.602 115.501C158.528 115.501 159.286 115.792 159.875 116.372C160.465 116.948 160.759 117.845 160.759 119.064V126H159.167V119.064C159.167 118.299 158.958 117.753 158.54 117.424C158.121 117.096 157.629 116.932 157.062 116.932C156.333 116.932 155.769 117.152 155.368 117.593C154.968 118.029 154.768 118.583 154.768 119.253V126H153.149V118.902C153.149 118.313 152.957 117.838 152.575 117.478C152.193 117.114 151.7 116.932 151.097 116.932C150.684 116.932 150.297 117.042 149.937 117.262C149.582 117.483 149.294 117.789 149.073 118.18C148.857 118.567 148.749 119.014 148.749 119.523V126H147.157ZM172.928 126.216C172.064 126.216 171.302 125.998 170.641 125.561C169.979 125.121 169.462 124.5 169.089 123.699C168.715 122.894 168.529 121.943 168.529 120.845C168.529 119.757 168.715 118.812 169.089 118.011C169.462 117.211 169.982 116.592 170.647 116.156C171.313 115.72 172.082 115.501 172.955 115.501C173.63 115.501 174.163 115.614 174.554 115.839C174.95 116.059 175.251 116.311 175.458 116.594C175.669 116.873 175.834 117.103 175.951 117.283H176.086V112.182H177.678V126H176.14V124.408H175.951C175.834 124.597 175.667 124.835 175.451 125.123C175.235 125.406 174.927 125.66 174.527 125.885C174.127 126.106 173.594 126.216 172.928 126.216ZM173.144 124.786C173.783 124.786 174.322 124.619 174.763 124.286C175.204 123.949 175.539 123.483 175.768 122.89C175.998 122.291 176.113 121.601 176.113 120.818C176.113 120.045 176 119.368 175.775 118.787C175.55 118.203 175.217 117.748 174.777 117.424C174.336 117.096 173.792 116.932 173.144 116.932C172.469 116.932 171.907 117.105 171.457 117.451C171.012 117.793 170.677 118.259 170.452 118.848C170.231 119.433 170.121 120.089 170.121 120.818C170.121 121.556 170.234 122.226 170.458 122.829C170.688 123.427 171.025 123.904 171.47 124.259C171.92 124.61 172.478 124.786 173.144 124.786ZM185.026 126.216C184.09 126.216 183.269 125.993 182.563 125.548C181.861 125.103 181.312 124.48 180.917 123.679C180.525 122.878 180.329 121.943 180.329 120.872C180.329 119.793 180.525 118.85 180.917 118.045C181.312 117.24 181.861 116.615 182.563 116.169C183.269 115.724 184.09 115.501 185.026 115.501C185.961 115.501 186.78 115.724 187.481 116.169C188.188 116.615 188.736 117.24 189.128 118.045C189.524 118.85 189.722 119.793 189.722 120.872C189.722 121.943 189.524 122.878 189.128 123.679C188.736 124.48 188.188 125.103 187.481 125.548C186.78 125.993 185.961 126.216 185.026 126.216ZM185.026 124.786C185.736 124.786 186.321 124.603 186.78 124.239C187.239 123.875 187.578 123.396 187.799 122.802C188.019 122.208 188.129 121.565 188.129 120.872C188.129 120.179 188.019 119.534 187.799 118.936C187.578 118.337 187.239 117.854 186.78 117.485C186.321 117.116 185.736 116.932 185.026 116.932C184.315 116.932 183.73 117.116 183.271 117.485C182.812 117.854 182.473 118.337 182.252 118.936C182.032 119.534 181.922 120.179 181.922 120.872C181.922 121.565 182.032 122.208 182.252 122.802C182.473 123.396 182.812 123.875 183.271 124.239C183.73 124.603 184.315 124.786 185.026 124.786ZM193.745 112.182V126H192.152V112.182H193.745ZM200.871 126.216C199.936 126.216 199.115 125.993 198.409 125.548C197.707 125.103 197.158 124.48 196.762 123.679C196.371 122.878 196.175 121.943 196.175 120.872C196.175 119.793 196.371 118.85 196.762 118.045C197.158 117.24 197.707 116.615 198.409 116.169C199.115 115.724 199.936 115.501 200.871 115.501C201.807 115.501 202.625 115.724 203.327 116.169C204.033 116.615 204.582 117.24 204.973 118.045C205.369 118.85 205.567 119.793 205.567 120.872C205.567 121.943 205.369 122.878 204.973 123.679C204.582 124.48 204.033 125.103 203.327 125.548C202.625 125.993 201.807 126.216 200.871 126.216ZM200.871 124.786C201.582 124.786 202.167 124.603 202.625 124.239C203.084 123.875 203.424 123.396 203.644 122.802C203.865 122.208 203.975 121.565 203.975 120.872C203.975 120.179 203.865 119.534 203.644 118.936C203.424 118.337 203.084 117.854 202.625 117.485C202.167 117.116 201.582 116.932 200.871 116.932C200.161 116.932 199.576 117.116 199.117 117.485C198.658 117.854 198.319 118.337 198.098 118.936C197.878 119.534 197.768 120.179 197.768 120.872C197.768 121.565 197.878 122.208 198.098 122.802C198.319 123.396 198.658 123.875 199.117 124.239C199.576 124.603 200.161 124.786 200.871 124.786ZM207.998 126V115.636H209.536V117.202H209.644C209.833 116.689 210.175 116.273 210.67 115.953C211.165 115.634 211.722 115.474 212.343 115.474C212.46 115.474 212.606 115.477 212.782 115.481C212.957 115.486 213.09 115.492 213.18 115.501V117.121C213.126 117.107 213.002 117.087 212.809 117.06C212.62 117.029 212.42 117.013 212.208 117.013C211.704 117.013 211.255 117.118 210.859 117.33C210.467 117.537 210.157 117.825 209.928 118.194C209.703 118.558 209.59 118.974 209.59 119.442V126H207.998ZM227.752 117.957L226.322 118.362C226.232 118.124 226.099 117.892 225.923 117.667C225.753 117.438 225.519 117.249 225.222 117.1C224.925 116.952 224.545 116.878 224.081 116.878C223.447 116.878 222.919 117.024 222.496 117.316C222.078 117.604 221.868 117.971 221.868 118.416C221.868 118.812 222.012 119.125 222.3 119.354C222.588 119.583 223.038 119.775 223.65 119.928L225.188 120.305C226.115 120.53 226.805 120.874 227.259 121.338C227.714 121.797 227.941 122.388 227.941 123.112C227.941 123.706 227.77 124.237 227.428 124.705C227.091 125.172 226.618 125.541 226.011 125.811C225.404 126.081 224.698 126.216 223.893 126.216C222.835 126.216 221.961 125.987 221.268 125.528C220.575 125.069 220.137 124.399 219.952 123.517L221.464 123.139C221.607 123.697 221.88 124.115 222.28 124.394C222.685 124.673 223.213 124.812 223.866 124.812C224.608 124.812 225.197 124.655 225.633 124.34C226.074 124.021 226.295 123.638 226.295 123.193C226.295 122.833 226.169 122.532 225.917 122.289C225.665 122.042 225.278 121.857 224.756 121.736L223.029 121.331C222.08 121.106 221.383 120.757 220.937 120.285C220.496 119.808 220.276 119.212 220.276 118.497C220.276 117.912 220.44 117.395 220.769 116.945C221.101 116.495 221.554 116.142 222.125 115.886C222.701 115.63 223.353 115.501 224.081 115.501C225.107 115.501 225.912 115.726 226.497 116.176C227.086 116.626 227.505 117.22 227.752 117.957ZM230.338 126V115.636H231.93V126H230.338ZM231.147 113.909C230.837 113.909 230.569 113.803 230.344 113.592C230.124 113.381 230.014 113.126 230.014 112.83C230.014 112.533 230.124 112.279 230.344 112.067C230.569 111.856 230.837 111.75 231.147 111.75C231.458 111.75 231.723 111.856 231.944 112.067C232.168 112.279 232.281 112.533 232.281 112.83C232.281 113.126 232.168 113.381 231.944 113.592C231.723 113.803 231.458 113.909 231.147 113.909ZM239.354 115.636V116.986H237.141V123.031C237.141 123.481 237.206 123.818 237.336 124.043C237.471 124.264 237.642 124.412 237.849 124.489C238.06 124.561 238.283 124.597 238.517 124.597C238.692 124.597 238.836 124.588 238.949 124.57L239.219 124.516L239.543 125.946C239.435 125.987 239.284 126.027 239.091 126.067C238.897 126.112 238.652 126.135 238.355 126.135C237.905 126.135 237.464 126.038 237.033 125.845C236.605 125.651 236.25 125.357 235.967 124.961C235.688 124.565 235.548 124.066 235.548 123.463V116.986H233.983V115.636H235.548V113.153H237.141V115.636H239.354ZM250.142 126.243C249.486 126.243 248.89 126.119 248.354 125.872C247.819 125.62 247.394 125.258 247.079 124.786C246.764 124.309 246.607 123.733 246.607 123.058C246.607 122.464 246.724 121.983 246.958 121.614C247.192 121.241 247.504 120.949 247.896 120.737C248.287 120.526 248.719 120.368 249.191 120.265C249.668 120.157 250.147 120.071 250.628 120.009C251.258 119.928 251.768 119.867 252.16 119.826C252.556 119.781 252.843 119.707 253.023 119.604C253.208 119.5 253.3 119.32 253.3 119.064V119.01C253.3 118.344 253.118 117.827 252.754 117.458C252.394 117.089 251.847 116.905 251.114 116.905C250.354 116.905 249.758 117.071 249.326 117.404C248.894 117.737 248.591 118.092 248.415 118.47L246.904 117.93C247.174 117.301 247.533 116.81 247.983 116.46C248.438 116.104 248.932 115.857 249.468 115.717C250.007 115.573 250.538 115.501 251.06 115.501C251.393 115.501 251.775 115.542 252.207 115.623C252.643 115.699 253.064 115.859 253.469 116.102C253.878 116.345 254.218 116.711 254.488 117.202C254.757 117.692 254.892 118.349 254.892 119.172V126H253.3V124.597H253.219C253.111 124.821 252.931 125.062 252.679 125.319C252.427 125.575 252.092 125.793 251.674 125.973C251.256 126.153 250.745 126.243 250.142 126.243ZM250.385 124.812C251.015 124.812 251.546 124.689 251.978 124.441C252.414 124.194 252.742 123.875 252.963 123.483C253.188 123.092 253.3 122.68 253.3 122.249V120.791C253.233 120.872 253.084 120.946 252.855 121.014C252.63 121.077 252.369 121.133 252.072 121.183C251.78 121.228 251.494 121.268 251.215 121.304C250.941 121.335 250.718 121.362 250.547 121.385C250.133 121.439 249.747 121.527 249.387 121.648C249.031 121.765 248.743 121.943 248.523 122.181C248.307 122.415 248.199 122.734 248.199 123.139C248.199 123.692 248.404 124.111 248.813 124.394C249.227 124.673 249.751 124.812 250.385 124.812ZM257.799 126V115.636H259.337V117.256H259.472C259.688 116.702 260.036 116.273 260.518 115.967C260.999 115.657 261.577 115.501 262.252 115.501C262.936 115.501 263.505 115.657 263.959 115.967C264.418 116.273 264.775 116.702 265.032 117.256H265.14C265.405 116.72 265.803 116.295 266.334 115.98C266.865 115.661 267.501 115.501 268.243 115.501C269.17 115.501 269.928 115.792 270.517 116.372C271.106 116.948 271.401 117.845 271.401 119.064V126H269.809V119.064C269.809 118.299 269.599 117.753 269.181 117.424C268.763 117.096 268.27 116.932 267.704 116.932C266.975 116.932 266.41 117.152 266.01 117.593C265.61 118.029 265.409 118.583 265.409 119.253V126H263.79V118.902C263.79 118.313 263.599 117.838 263.217 117.478C262.834 117.114 262.342 116.932 261.739 116.932C261.325 116.932 260.938 117.042 260.579 117.262C260.223 117.483 259.935 117.789 259.715 118.18C259.499 118.567 259.391 119.014 259.391 119.523V126H257.799ZM278.658 126.216C277.659 126.216 276.798 125.995 276.073 125.555C275.354 125.109 274.798 124.489 274.407 123.692C274.02 122.892 273.827 121.961 273.827 120.899C273.827 119.838 274.02 118.902 274.407 118.092C274.798 117.278 275.342 116.644 276.04 116.19C276.741 115.731 277.56 115.501 278.496 115.501C279.035 115.501 279.568 115.591 280.095 115.771C280.621 115.951 281.1 116.244 281.532 116.648C281.964 117.049 282.308 117.58 282.564 118.241C282.821 118.902 282.949 119.716 282.949 120.683V121.358H275.422C275.445 122.047 275.579 122.639 275.824 123.132C276.098 123.672 276.478 124.084 276.964 124.367C277.45 124.646 278.014 124.786 278.658 124.786C279.076 124.786 279.454 124.727 279.791 124.61C280.133 124.489 280.428 124.309 280.675 124.07C280.922 123.827 281.113 123.526 281.248 123.166L282.787 123.598C282.625 124.12 282.353 124.579 281.97 124.974C281.588 125.366 281.116 125.672 280.553 125.892C279.991 126.108 279.359 126.216 278.658 126.216ZM275.79 118.619C275.578 119.046 275.457 119.501 275.427 119.982H281.329C281.329 119.397 281.212 118.875 280.979 118.416C280.749 117.957 280.421 117.595 279.993 117.33C279.571 117.065 279.071 116.932 278.496 116.932C277.861 116.932 277.313 117.089 276.849 117.404C276.391 117.714 276.037 118.119 275.79 118.619ZM289.878 115.636V116.986H287.665V123.031C287.665 123.481 287.73 123.818 287.861 124.043C287.996 124.264 288.167 124.412 288.373 124.489C288.585 124.561 288.808 124.597 289.041 124.597C289.217 124.597 289.361 124.588 289.473 124.57L289.743 124.516L290.067 125.946C289.959 125.987 289.808 126.027 289.615 126.067C289.422 126.112 289.176 126.135 288.879 126.135C288.43 126.135 287.989 126.038 287.557 125.845C287.13 125.651 286.774 125.357 286.491 124.961C286.212 124.565 286.073 124.066 286.073 123.463V116.986H284.507V115.636H286.073V113.153H287.665V115.636H289.878ZM293.434 126.108C293.101 126.108 292.815 125.989 292.577 125.75C292.339 125.512 292.219 125.226 292.219 124.893C292.219 124.561 292.339 124.275 292.577 124.037C292.815 123.798 293.101 123.679 293.434 123.679C293.767 123.679 294.052 123.798 294.291 124.037C294.529 124.275 294.648 124.561 294.648 124.893C294.648 125.114 294.592 125.316 294.48 125.501C294.372 125.685 294.225 125.834 294.041 125.946C293.861 126.054 293.659 126.108 293.434 126.108ZM172 453C199.614 453 222 430.614 222 403C222 391.676 218.236 381.232 211.89 372.85C204.717 358.142 189.608 348 172.122 348C155.137 348 140.403 357.604 133.027 371.674C126.129 380.246 122 391.141 122 403C122 430.614 144.386 453 172 453ZM172 574C266.441 574 343 497.441 343 403C343 308.559 266.441 232 172 232C77.5593 232 1 308.559 1 403C1 497.441 77.5593 574 172 574ZM172 575C266.993 575 344 497.993 344 403C344 308.007 266.993 231 172 231C77.007 231 0 308.007 0 403C0 497.993 77.007 575 172 575ZM310 403C310 479.215 248.215 541 172 541C95.7847 541 34 479.215 34 403C34 326.785 95.7847 265 172 265C248.215 265 310 326.785 310 403ZM311 403C311 479.768 248.768 542 172 542C95.2324 542 33 479.768 33 403C33 326.232 95.2324 264 172 264C248.768 264 311 326.232 311 403ZM172 513C232.751 513 282 463.751 282 403C282 342.249 232.751 293 172 293C111.249 293 62 342.249 62 403C62 463.751 111.249 513 172 513ZM172 514C233.304 514 283 464.304 283 403C283 341.696 233.304 292 172 292C110.696 292 61 341.696 61 403C61 464.304 110.696 514 172 514ZM251 403C251 446.63 215.63 482 172 482C128.37 482 93 446.63 93 403C93 359.37 128.37 324 172 324C215.63 324 251 359.37 251 403ZM252 403C252 447.183 216.183 483 172 483C127.817 483 92 447.183 92 403C92 358.817 127.817 323 172 323C216.183 323 252 358.817 252 403ZM47.6929 6.65381L51.5493 6.66455C51.6138 6.66455 51.6245 6.66992 51.6245 6.73975L51.6353 10.5801C51.6353 11.5791 52.8975 11.7993 53.3379 10.8433L57.2803 2.28174C57.7476 1.27197 56.9688 0.568359 55.9805 1.01953L47.3813 4.97803C46.4897 5.38623 46.6777 6.64844 47.6929 6.65381ZM287.5 1C286.948 1 286.5 1.44772 286.5 2V11.5C286.5 12.0523 286.948 12.5 287.5 12.5H289C289.552 12.5 290 12.0523 290 11.5V2C290 1.44772 289.552 1 289 1H287.5ZM281.5 4.5C281.5 3.94772 281.948 3.5 282.5 3.5H284C284.552 3.5 285 3.94772 285 4.5V11.5C285 12.0523 284.552 12.5 284 12.5H282.5C281.948 12.5 281.5 12.0523 281.5 11.5V4.5ZM277.5 6C276.948 6 276.5 6.44772 276.5 7V11.5C276.5 12.0523 276.948 12.5 277.5 12.5H279C279.552 12.5 280 12.0523 280 11.5V7C280 6.44772 279.552 6 279 6H277.5ZM271.5 9C271.5 8.44772 271.948 8 272.5 8H274C274.552 8 275 8.44772 275 9V11.5C275 12.0523 274.552 12.5 274 12.5H272.5C271.948 12.5 271.5 12.0523 271.5 11.5V9ZM305.424 10.0473C305.426 10.138 305.39 10.2255 305.325 10.2891L303.233 12.4029C303.171 12.465 303.088 12.5 303.001 12.5C302.913 12.5 302.83 12.465 302.768 12.4029L300.676 10.2891C300.611 10.2254 300.575 10.138 300.577 10.0472C300.579 9.95651 300.618 9.87061 300.686 9.80979C302.022 8.67835 303.979 8.67835 305.316 9.80979C305.383 9.87065 305.422 9.95659 305.424 10.0473ZM303 7.36905C304.276 7.36897 305.506 7.84354 306.451 8.70056C306.579 8.82219 306.781 8.81956 306.905 8.69462L308.115 7.47112C308.179 7.40694 308.214 7.31988 308.213 7.22942C308.212 7.13895 308.175 7.05263 308.11 6.98976C305.231 4.30885 300.772 4.30885 297.893 6.98976C297.828 7.05263 297.791 7.13899 297.79 7.22949C297.789 7.31998 297.825 7.40704 297.889 7.47112L299.098 8.69462C299.223 8.81956 299.424 8.82219 299.552 8.70056C300.497 7.84411 301.726 7.36957 303 7.36905ZM309.237 5.88246C307.555 4.28128 305.322 3.38837 303 3.38827C300.679 3.38826 298.446 4.28118 296.763 5.88246C296.637 6.00627 296.434 6.00471 296.309 5.87896L295.098 4.65546C295.035 4.59174 294.999 4.50545 295 4.4157C295.001 4.32595 295.037 4.24014 295.101 4.17725C299.517 -0.059083 306.483 -0.059083 310.899 4.17725C310.963 4.24019 310.999 4.32603 311 4.41577C311.001 4.50552 310.965 4.59178 310.902 4.65546L309.691 5.87896C309.566 6.00452 309.364 6.00608 309.237 5.88246ZM317 3.75C317 3.05964 317.56 2.5 318.25 2.5H319H321H323H325H327H329H331H331.75C332.44 2.5 333 3.05964 333 3.75V9.75C333 10.4404 332.44 11 331.75 11H331H329H327H325H323H321H319H318.25C317.56 11 317 10.4404 317 9.75V3.75Z" fill="url(#paint0_linear_5002_36)"/>
<defs>
<linearGradient id="paint0_linear_5002_36" x1="135.838" y1="409.023" x2="204.525" y2="409.023" gradientUnits="userSpaceOnUse">
<stop stop-color="#CE722C"/>
<stop offset="0.54096" stop-color="white"/>
<stop offset="1" stop-color="#CE722C"/>
</linearGradient>
</defs>
</svg>
